#!OML:ASF \\sashay\E\Suitcase\Project 1\Capture day 1\Session 1\Male1.ASF
:FULLY-SPECIFIED
:DEGREES
350
root -0.725939 17.4458 -34.0153 6.74219 -1.80676 -5.04233
lowerback 10.332 1.7738 5.14894
upperback 1.03287 3.19732 5.11466
thorax -4.73537 1.52173 2.00323
lowerneck -19.39 -1.49547 -4.19411
upperneck 5.24638 -0.468783 -4.74806
head 4.68007 -0.662765 -0.874725
rclavicle 2.3059e-014 3.81667e-014
rhumerus -30.2606 -33.6935 -61.9484
rradius 7.79322
rwrist 9.67882
rhand -22.2833 22.0257
rfingers 7.12502
rthumb 4.13522 -7.91391
lclavicle 2.3059e-014 3.81667e-014
lhumerus -42.8415 3.62014 86.9114
lradius 35.0611
lwrist -1.60375
lhand -3.37254 40.1075
lfingers 7.12502
lthumb 22.3564 68.8339
rfemur 9.05408 0.610538 29.2288
rtibia 1.90833e-014
rfoot -13.116 -6.81202
rtoes 9.40225
lfemur -36.1566 -1.74846 -10.9426
ltibia 28.5222
lfoot -12.6791 3.92812
ltoes 1.6254
351
root -0.706565 17.4468 -33.9286 6.81375 -2.09501 -5.13472
lowerback 9.91922 1.93614 5.16349
upperback 1.1127 3.36475 4.97918
thorax -4.41098 1.60929 1.84406
lowerneck -19.3763 -1.62718 -4.07299
upperneck 4.77058 -0.718667 -4.55577
head 4.52502 -0.754552 -0.853182
rclavicle -1.82882e-014 4.29375e-014
rhumerus -29.8436 -34.0652 -62.246
rradius 7.40358
rwrist 9.6428
rhand -22.0635 22.0985
rfingers 7.12502
rthumb 4.34749 -7.83687
lclavicle -1.82882e-014 4.29375e-014
lhumerus -42.8538 3.61682 86.7459
lradius 34.9094
lwrist -1.49338
lhand -3.11056 39.9269
lfingers 7.12502
lthumb 22.6079 68.6229
rfemur 9.28482 0.950049 29.2508
rtibia 1.90833e-014
rfoot -13.142 -6.76117
rtoes 9.29841
lfemur -36.1805 -1.71379 -10.8165
ltibia 27.8711
lfoot -12.9223 4.10081
ltoes 1.05706
352
root -0.686783 17.4271 -33.8506 6.80914 -2.21485 -5.21523
lowerback 9.92568 2.04539 5.12883
upperback 1.00754 3.51082 4.89721
thorax -4.52139 1.67863 1.75618
lowerneck -19.4408 -1.70175 -3.806
upperneck 4.56195 -0.872904 -4.71686
head 4.46699 -0.830254 -0.959393
rclavicle 1.05356e-014 -1.90833e-014
rhumerus -29.9648 -34.2547 -62.2127
rradius 7.58012
rwrist 9.37229
rhand -22.1606 21.4242
rfingers 7.12502
rthumb 4.25373 -8.51304
lclavicle 1.05356e-014 -1.90833e-014
lhumerus -43.0704 3.56877 86.6685
lradius 34.4992
lwrist -1.47249
lhand -3.51888 39.855
lfingers 7.12502
lthumb 22.2159 68.5983
rfemur 9.56134 1.11324 29.2609
rtibia -6.99722e-014
rfoot -13.1981 -6.83055
rtoes 9.96947
lfemur -36.2555 -2.11046 -10.5702
ltibia 27.3862
lfoot -13.1409 4.59444
ltoes 0.331165
353
root -0.67517 17.4267 -33.776 7.02844 -2.30865 -5.3027
lowerback 9.72088 2.15057 5.11258
upperback 0.777024 3.64185 4.75225
thorax -4.63965 1.73879 1.59999
lowerneck -19.9295 -1.59307 -4.44598
upperneck 5.79373 -0.576001 -3.78732
head 4.93371 -0.674032 -0.550396
rclavicle 8.54774e-015 -3.33958e-014
rhumerus -29.6474 -34.5978 -62.5221
rradius 6.63313
rwrist 9.68935
rhand -22.4479 21.923
rfingers 7.12502
rthumb 3.97625 -8.0196
lclavicle 8.54774e-015 -3.33958e-014
lhumerus -43.5199 3.28049 86.5242
lradius 34.3788
lwrist -1.52136
lhand -3.31618 39.6566
lfingers 7.12502
lthumb 22.4105 68.3765
rfemur 9.6065 1.28497 29.3056
rtibia 1.27222e-014
rfoot -13.3459 -6.87412
rtoes 9.5569
lfemur -36.5069 -2.30126 -10.3135
ltibia 26.8974
lfoot -12.7835 4.6326
ltoes -1.32377
354
root -0.663607 17.4313 -33.7051 7.19051 -2.11167 -5.35926
lowerback 9.52024 1.92713 5.15358
upperback 0.711475 3.33097 4.62444
thorax -4.58738 1.58401 1.49049
lowerneck -20.4632 -1.27861 -4.04287
upperneck 5.9726 -0.180352 -4.12693
head 5.07291 -0.50666 -0.688204
rclavicle 4.6118e-014 7.07673e-014
rhumerus -29.3187 -34.307 -63.078
rradius 6.71426
rwrist 9.81908
rhand -22.27 21.8223
rfingers 7.12502
rthumb 4.14805 -8.1171
lclavicle 4.6118e-014 7.07673e-014
lhumerus -43.707 3.78988 86.0499
lradius 34.1674
lwrist -1.67492
lhand -3.4386 39.653
lfingers 7.12502
lthumb 22.293 68.387
rfemur 9.68905 1.15844 29.3669
rtibia 1.59028e-014
rfoot -13.4325 -7.01909
rtoes 8.77502
lfemur -36.7992 -2.36201 -10.2705
ltibia 26.4998
lfoot -13.2697 4.37038
ltoes 0.117304
355
root -0.644445 17.411 -33.6193 7.33374 -2.4253 -5.46681
lowerback 9.27214 2.02098 4.96791
upperback 0.764558 3.41391 4.67445
thorax -4.40573 1.63324 1.64486
lowerneck -21.4497 -1.46698 -4.2101
upperneck 6.76464 -0.302711 -3.99769
head 5.47695 -0.594664 -0.646727
rclavicle -1.76918e-014 -3.33958e-014
rhumerus -28.3093 -34.411 -63.6141
rradius 6.11348
rwrist 9.84399
rhand -22.7429 21.5664
rfingers 7.12502
rthumb 3.69135 -8.38135
lclavicle -1.76918e-014 -3.33958e-014
lhumerus -43.6324 4.37197 85.9058
lradius 33.7279
lwrist -2.35336
lhand -2.84449 39.4273
lfingers 7.12502
lthumb 22.8632 68.092
rfemur 9.87988 1.5407 29.3615
rtibia -6.04305e-014
rfoot -13.6235 -6.94391
rtoes 9.31605
lfemur -36.8882 -2.48676 -10.0188
ltibia 26.1069
lfoot -13.2156 4.62299
ltoes 0.293978
356
root -0.630917 17.3982 -33.5467 7.26329 -2.30758 -5.54421
lowerback 9.21808 2.27708 4.92196
upperback 0.540919 3.75337 4.49284
thorax -4.59867 1.79534 1.43597
lowerneck -20.0619 -1.62195 -4.16315
upperneck 5.8642 -0.693514 -3.61136
head 4.97467 -0.714262 -0.552326
rclavicle 2.32578e-014 2.8625e-014
rhumerus -29.7892 -35.0109 -62.7754
rradius 6.90346
rwrist 9.90851
rhand -22.1847 22.0389
rfingers 7.12502
rthumb 4.23043 -7.89888
lclavicle 2.32578e-014 2.8625e-014
lhumerus -43.8625 3.71443 85.783
lradius 33.0169
lwrist -2.8996
lhand -2.68441 39.2643
lfingers 7.12502
lthumb 23.0168 67.91
rfemur 10.2406 1.45536 29.4548
rtibia -2.54444e-014
rfoot -13.4469 -7.13714
rtoes 7.00634
lfemur -36.9593 -2.62939 -9.91232
ltibia 25.8303
lfoot -13.5505 4.70941
ltoes 2.27589
357
root -0.606995 17.3911 -33.4634 7.54614 -2.5076 -5.62063
lowerback 9.08774 2.15771 4.99708
upperback 0.470634 3.59086 4.3816
thorax -4.58832 1.71193 1.30263
lowerneck -21.4217 -1.47259 -4.47628
upperneck 6.69864 -0.345519 -3.15802
head 5.44878 -0.552812 -0.339446
rclavicle -2.32578e-014 -1.43125e-014
rhumerus -28.702 -34.8191 -63.7399
rradius 6.27062
rwrist 9.83579
rhand -22.5833 21.6714
rfingers 7.12502
rthumb 3.84547 -8.27362
lclavicle -2.32578e-014 -1.43125e-014
lhumerus -43.9695 4.35713 85.3367
lradius 32.9656
lwrist -2.72343
lhand -2.47075 40.0194
lfingers 7.12502
lthumb 23.2218 68.6393
rfemur 10.2511 1.74819 29.4086
rtibia 2.22639e-014
rfoot -13.6723 -7.15791
rtoes 6.65451
lfemur -37.1887 -2.66695 -9.77447
ltibia 25.5786
lfoot -13.4559 4.71349
ltoes -0.0284714
358
root -0.588366 17.3833 -33.3874 7.51158 -2.41208 -5.66106
lowerback 8.82958 2.2997 4.74958
upperback 0.446767 3.73765 4.40534
thorax -4.48408 1.79251 1.4566
lowerneck -20.4394 -1.58255 -3.89915
upperneck 5.56507 -0.676663 -3.80857
head 4.93625 -0.709885 -0.656574
rclavicle -2.60408e-014 -5.1684e-014
rhumerus -29.0443 -35.1057 -63.3174
rradius 6.60791
rwrist 9.89877
rhand -21.8916 21.9298
rfingers 7.12502
rthumb 4.51343 -8.00216
lclavicle -2.60408e-014 -5.1684e-014
lhumerus -44.1091 4.23841 85.4109
lradius 32.5656
lwrist -3.24426
lhand -2.79451 38.9206
lfingers 7.12502
lthumb 22.9112 67.5794
rfemur 10.5871 1.69181 29.4128
rtibia -5.40694e-014
rfoot -13.524 -7.20753
rtoes 5.72131
lfemur -37.1264 -2.66549 -9.79961
ltibia 25.4805
lfoot -13.5393 4.59682
ltoes 2.99926
